# xmcd
#
# Track frame offsets:
#	150
#	12817
#	25181
#	36994
#	49480
#	61589
#	75747
#	86769
#	101980
#	114711
#	139779
#	161084
#	167888
#	180982
#	190370
#	203935
#	217074
#	230948
#
# Disc length: 3252 seconds
#
# Revision: 0
# Processed by: cddbd v1.5.2PL0 Copyright (c) Steve Scherf et al.
# Submitted via: audiograbber 1.83.01
#
DISCID=070cb212
DTITLE=Various Artist - Mad about the boy
DYEAR=1996
DGENRE=Blues
TTITLE0=Dinah Washington - Mad about the boy
TTITLE1=Sam Cooke - When I fall in love
TTITLE2=Nat King Cole - Love is a many splendoured thing
TTITLE3=Sarah Vaughan - Favourite things
TTITLE4=Aretha Franklin - I never loved a man (the way I love you)
TTITLE5=Jackie Wilson - For once in my life
TTITLE6=Doris Day - I am in the mood for love
TTITLE7=Nina Simone - Love me or leave me
TTITLE8=Engelbert Humperdinck - Embraceable you
TTITLE9=Elle Fitzgerald and Louis Armstrong - The nearness of you
TTITLE10=Lionel Hampton and Dinah Wahsington - Close to you 
TTITLE11=Frank Sinatra - Somebody loves me
TTITLE12=Harry Belafonte - Hallelujah, I love her so
TTITLE13=Peggy Lee - Let there be love
TTITLE14=Marilyn Monroe - I wanna be loved by you
TTITLE15=Billie Holiday - Summertime
TTITLE16=Lena Horne - More than you know
TTITLE17=Marlene Dietrich - Falling in love again
EXTD=YEAR: 1996 ID3G: 0
EXTT0=
EXTT1=
EXTT2=
EXTT3=
EXTT4=
EXTT5=
EXTT6=
EXTT7=
EXTT8=
EXTT9=
EXTT10=
EXTT11=
EXTT12=
EXTT13=
EXTT14=
EXTT15=
EXTT16=
EXTT17=
PLAYORDER=
